<svg xmlns="http://www.w3.org/2000/svg" viewBox="12 12 581 155" role="img" aria-labelledby="hepburnLogoTitle">
  <title id="hepburnLogoTitle">Hepburn Architects</title>
  <path d="M 28.724743 83.283750 C 28.724743 66.800250 38.139583 59.919750 49.811073 59.919750 C 61.798008 59.919750 68.762078 67.122000 68.762078 81.254250 L 68.762078 131.076000 L 81.646821 131.076000 L 81.646821 80.338500 C 81.646821 58.608000 68.373837 47.841750 52.237578 47.841750 C 42.288907 47.841750 34.257174 51.950250 28.724743 60.835500 L 28.724743 15.840000 L 15.840000 15.840000 L 15.840000 131.076000 L 28.724743 131.076000 L 28.724743 83.283750 Z M 133.816682 132.932250 C 151.263254 132.932250 164.924479 122.265000 167.957610 106.623000 L 155.048602 106.623000 C 152.622097 115.137000 145.196991 121.027500 133.816682 121.027500 C 118.651025 121.027500 110.012666 110.038500 109.406040 94.025250 L 169.316453 94.025250 L 169.316453 90.387000 C 169.316453 65.018250 155.218458 47.544750 132.918875 47.544750 C 111.686955 47.544750 96.666888 65.562750 96.666888 90.387000 C 96.666888 114.988500 110.328112 132.932250 133.816682 132.932250 Z M 109.551630 82.739250 C 110.934738 68.359500 119.791482 59.301000 132.918875 59.301000 C 146.119063 59.301000 155.048602 68.359500 156.431710 82.739250 L 109.551630 82.739250 Z M 184.027141 163.399500 L 196.911883 163.399500 L 196.911883 118.701000 L 197.057474 118.701000 C 202.832556 128.130750 211.689300 132.635250 222.099007 132.635250 C 242.942687 132.635250 256.822296 115.384500 256.822296 90.238500 C 256.822296 65.018250 242.942687 47.841750 222.099007 47.841750 C 211.689300 47.841750 201.910484 52.346250 196.766293 61.454250 L 196.620703 61.454250 L 196.620703 49.401000 L 184.027141 49.401000 L 184.027141 163.399500 Z M 220.109273 120.780000 C 205.259061 120.780000 195.844221 108.726750 195.844221 90.238500 C 195.844221 71.750250 205.259061 59.598000 220.109273 59.598000 C 233.988882 59.598000 243.767698 70.215750 243.767698 90.238500 C 243.767698 110.261250 233.988882 120.780000 220.109273 120.780000 Z M 309.908163 132.635250 C 330.751843 132.635250 344.631453 115.384500 344.631453 90.238500 C 344.631453 65.018250 330.751843 47.841750 309.908163 47.841750 C 299.498456 47.841750 290.035086 52.346250 284.866630 61.454250 L 284.721040 61.454250 L 284.721040 15.840000 L 271.836297 15.840000 L 271.836297 131.076000 L 284.429859 131.076000 L 284.429859 118.701000 L 284.575449 118.701000 C 290.326267 128.130750 299.498456 132.635250 309.908163 132.635250 Z M 307.918429 120.780000 C 293.068217 120.780000 283.653377 108.726750 283.653377 90.238500 C 283.653377 71.750250 293.068217 59.598000 307.918429 59.598000 C 321.798039 59.598000 331.576855 70.215750 331.576855 90.238500 C 331.576855 110.261250 321.798039 120.780000 307.918429 120.780000 Z M 389.054696 132.635250 C 399.221753 132.635250 407.326280 128.378250 412.882977 119.097000 L 412.882977 131.076000 L 425.452274 131.076000 L 425.452274 49.401000 L 412.567532 49.401000 L 412.567532 97.193250 C 412.567532 113.676750 403.176956 120.557250 391.481201 120.557250 C 379.518531 120.557250 372.530196 113.355000 372.530196 99.198000 L 372.530196 49.401000 L 359.645453 49.401000 L 359.645453 100.138500 C 359.645453 121.869000 372.918437 132.635250 389.054696 132.635250 Z M 444.573135 131.076000 L 457.457877 131.076000 L 457.457877 80.808750 C 457.457877 66.948750 465.125634 60.835500 473.982378 60.835500 C 477.694931 60.835500 480.825122 61.454250 481.868520 61.776000 L 481.868520 48.633750 C 480.825122 48.460500 478.762593 48.163500 476.408883 48.163500 C 466.411682 48.163500 460.102768 53.806500 457.166697 62.246250 L 456.851251 62.246250 L 456.851251 49.401000 L 444.573135 49.401000 L 444.573135 131.076000 Z M 507.504547 83.283750 C 507.504547 66.800250 516.919387 59.919750 528.590877 59.919750 C 540.577813 59.919750 547.541882 67.122000 547.541882 81.254250 L 547.541882 131.076000 L 560.426625 131.076000 L 560.426625 80.338500 C 560.426625 58.608000 547.153642 47.841750 531.017382 47.841750 C 520.850325 47.841750 512.745798 52.098750 507.213366 61.380000 L 507.213366 49.401000 L 494.619804 49.401000 L 494.619804 131.076000 L 507.504547 131.076000 L 507.504547 83.283750 Z" fill="#FFFFFF"/>
  <path d="M 581.167125 132.23925 C 585.498375 132.23925 588.988125 128.82375 588.988125 124.41825 C 588.988125 120.01275 585.498375 116.622 581.167125 116.622 C 576.761625 116.622 573.271875 120.01275 573.271875 124.41825 C 573.271875 128.82375 576.761625 132.23925 581.167125 132.23925 Z" fill="#F36C21"/>
</svg>
