<svg xmlns="http://www.w3.org/2000/svg" viewBox="12 12 581 155" role="img" aria-labelledby="hepburnLogoTitle">
 <title id="hepburnLogoTitle">Hepburn Architects</title>
 <defs>
  <style type="text/css">*{stroke-linejoin:round;stroke-linecap:butt}</style>
  <clipPath id="hepburnLogoClip"><rect x="0" y="0" width="604.828125" height="179.2395"/></clipPath>
 </defs>
 <g clip-path="url(#hepburnLogoClip)">
  <path d="M 25.74 81.50175 C 25.74 65.41425 36.1845 57.222 49.5 57.222 C 62.865 57.222 71.2305 65.4885 71.2305 80.11575 L 71.2305 131.076 L 81.20475 131.076 L 81.20475 79.497 C 81.20475 59.1525 68.0625 47.94075 51.10875 47.94075 C 40.36725 47.94075 31.30875 52.49475 25.74 62.073 L 25.74 15.84 L 15.84 15.84 L 15.84 131.076 L 25.74 131.076 L 25.74 81.50175 z M 133.795406 132.7095 C 150.971906 132.7095 164.955656 122.265 168.296906 106.623 L 158.322656 106.623 C 155.451656 116.84475 146.170406 123.57675 133.795406 123.57675 C 117.163406 123.57675 106.867406 110.95425 106.496156 92.78775 L 169.682906 92.78775 L 169.682906 89.694 C 169.682906 65.16675 155.377406 47.7675 133.176656 47.7675 C 111.743156 47.7675 96.596156 65.637 96.596156 90.31275 C 96.596156 114.84 110.827406 132.7095 133.795406 132.7095 z M 106.570406 84.051 C 107.956406 67.5675 118.326656 56.75175 133.176656 56.75175 C 148.100906 56.75175 158.619656 67.64175 159.708656 84.051 L 106.570406 84.051 z M 184.75875 163.3995 L 194.65875 163.3995 L 194.65875 115.60725 L 194.80725 115.60725 C 199.85625 126.20025 210.05325 132.53625 222.354 132.53625 C 243.31725 132.53625 257.91975 115.533 257.91975 90.2385 C 257.91975 64.944 243.243 47.94075 222.354 47.94075 C 210.05325 47.94075 199.1385 54.351 194.5845 64.7955 L 194.51025 64.7955 L 194.51025 49.401 L 184.75875 49.401 L 184.75875 163.3995 z M 220.968 123.42825 C 204.55875 123.42825 193.96575 110.4345 193.96575 90.2385 C 193.96575 70.0425 204.55875 56.9745 220.968 56.9745 C 236.511 56.9745 247.87125 68.97825 247.87125 90.2385 C 247.87125 111.49875 236.511 123.42825 220.968 123.42825 z M 310.912594 132.53625 C 331.875844 132.53625 346.478344 115.533 346.478344 90.2385 C 346.478344 64.944 331.801594 47.94075 310.912594 47.94075 C 298.611844 47.94075 287.870344 54.351 283.365844 64.7955 L 283.217344 64.7955 L 283.217344 15.84 L 273.317344 15.84 L 273.317344 131.076 L 283.068844 131.076 L 283.068844 115.60725 L 283.143094 115.60725 C 288.241594 126.20025 298.611844 132.53625 310.912594 132.53625 z M 309.526594 123.42825 C 293.117344 123.42825 282.524344 110.4345 282.524344 90.2385 C 282.524344 70.0425 293.117344 56.9745 309.526594 56.9745 C 325.069594 56.9745 336.429844 68.97825 336.429844 90.2385 C 336.429844 111.49875 325.069594 123.42825 309.526594 123.42825 z M 391.897688 132.53625 C 402.787688 132.53625 411.994688 127.908 417.489187 118.008 L 417.489187 131.076 L 427.240688 131.076 L 427.240688 49.401 L 417.266438 49.401 L 417.266438 98.97525 C 417.266438 115.06275 406.896187 123.255 393.580688 123.255 C 380.215688 123.255 371.775937 114.9885 371.775937 100.36125 L 371.775937 49.401 L 361.875938 49.401 L 361.875938 100.98 C 361.875938 121.3245 375.018188 132.53625 391.897688 132.53625 z M 447.186094 131.076 L 457.086094 131.076 L 457.086094 80.01675 C 457.086094 65.7855 465.996094 58.0635 477.133594 58.0635 C 479.979844 58.0635 482.157844 58.4595 483.073594 58.68225 L 483.073594 48.708 C 482.083594 48.63375 480.672844 48.38625 478.742344 48.38625 C 468.000844 48.38625 460.254094 54.2025 456.937594 63.0135 L 456.714844 63.0135 L 456.714844 49.401 L 447.186094 49.401 L 447.186094 131.076 z M 504.961875 81.50175 C 504.961875 65.41425 515.406375 57.222 528.721875 57.222 C 542.086875 57.222 550.452375 65.4885 550.452375 80.11575 L 550.452375 131.076 L 560.426625 131.076 L 560.426625 79.497 C 560.426625 59.1525 547.284375 47.94075 530.330625 47.94075 C 519.514875 47.94075 510.307875 52.569 504.813375 62.469 L 504.813375 49.401 L 495.061875 49.401 L 495.061875 131.076 L 504.961875 131.076 L 504.961875 81.50175 z" fill="#FFFFFF"/>
  <path d="M 581.167125 132.23925 C 585.498375 132.23925 588.988125 128.82375 588.988125 124.41825 C 588.988125 120.01275 585.498375 116.622 581.167125 116.622 C 576.761625 116.622 573.271875 120.01275 573.271875 124.41825 C 573.271875 128.82375 576.761625 132.23925 581.167125 132.23925 z" fill="#F36C21"/>
 </g>
</svg>
